<svg width="84" height="25" viewBox="0 0 84 25" fill="none" xmlns="http://www.w3.org/2000/svg">
<g clip-path="url(#clip0_709_1452)">
<path d="M43.2049 8.30756H39.214V18.7772H37.0026V8.30756H33.0117V6.37256H43.2049V8.30756ZM50.4785 14.2507C50.4785 17.0668 48.6644 18.9673 46.1074 18.9673C43.5505 18.9673 41.7364 17.0668 41.7364 14.2507C41.7364 11.4346 43.5505 9.53421 46.1074 9.53421C48.6644 9.53421 50.4785 11.4346 50.4785 14.2507ZM43.8269 14.2507C43.8269 16.0993 44.708 17.2223 46.1074 17.2223C47.5069 17.2223 48.388 16.0993 48.388 14.2507C48.388 12.4021 47.5069 11.2791 46.1074 11.2791C44.708 11.2791 43.8269 12.4021 43.8269 14.2507ZM56.6014 18.9673C55.4266 18.9673 54.5628 18.5008 53.9927 17.827V18.7772H51.9194V6.37256H53.9927V10.6744C54.5628 10.0007 55.4266 9.53421 56.6014 9.53421C59.1411 9.53421 60.5924 11.6765 60.5924 14.2507C60.5924 16.825 59.1411 18.9673 56.6014 18.9673ZM53.9408 13.9916V14.5272C53.9408 16.203 54.9083 17.1532 56.1868 17.1532C57.6899 17.1532 58.5019 15.9784 58.5019 14.2507C58.5019 12.5231 57.6899 11.3482 56.1868 11.3482C54.9083 11.3482 53.9408 12.2812 53.9408 13.9916ZM61.9871 8.4976V6.37256H64.1294V8.4976H61.9871ZM64.0948 9.70698V18.7772H62.0216V9.70698H64.0948ZM68.1738 6.37256V13.5251L71.6637 9.70698H74.2034L70.7826 13.2314L74.4798 18.7772H72.0783L69.3659 14.6827L68.1738 15.892V18.7772H66.1006V6.37256H68.1738ZM83.0924 14.2507C83.0924 17.0668 81.2783 18.9673 78.7214 18.9673C76.1644 18.9673 74.3503 17.0668 74.3503 14.2507C74.3503 11.4346 76.1644 9.53421 78.7214 9.53421C81.2783 9.53421 83.0924 11.4346 83.0924 14.2507ZM76.4408 14.2507C76.4408 16.0993 77.3219 17.2223 78.7214 17.2223C80.1208 17.2223 81.0019 16.0993 81.0019 14.2507C81.0019 12.4021 80.1208 11.2791 78.7214 11.2791C77.3219 11.2791 76.4408 12.4021 76.4408 14.2507Z" fill="white"/>
<path d="M3.13595 15.6176C4.86788 15.6176 6.2719 14.2136 6.2719 12.4817C6.2719 10.7497 4.86788 9.3457 3.13595 9.3457C1.40401 9.3457 0 10.7497 0 12.4817C0 14.2136 1.40401 15.6176 3.13595 15.6176Z" fill="#F74808"/>
<path d="M4.52939 6.94744C6.08812 6.94744 7.35174 5.68383 7.35174 4.12509C7.35174 2.56635 6.08812 1.30273 4.52939 1.30273C2.97064 1.30273 1.70703 2.56635 1.70703 4.12509C1.70703 5.68383 2.97064 6.94744 4.52939 6.94744Z" fill="#F74808"/>
<path d="M4.52939 23.6721C6.08812 23.6721 7.35174 22.4084 7.35174 20.8497C7.35174 19.291 6.08812 18.0273 4.52939 18.0273C2.97064 18.0273 1.70703 19.291 1.70703 20.8497C1.70703 22.4084 2.97064 23.6721 4.52939 23.6721Z" fill="#F74808"/>
<path d="M15.5961 12.4836C15.5961 14.2155 14.192 15.6196 12.4601 15.6196C10.7282 15.6196 9.32422 14.2155 9.32422 12.4836C9.32422 10.7517 10.7282 9.34766 12.4601 9.34766C14.192 9.34766 15.5961 10.7517 15.5961 12.4836Z" fill="#F74808"/>
<path d="M15.5961 3.42306C15.5961 5.15499 14.192 6.55901 12.4601 6.55901C10.7282 6.55901 9.32422 5.15499 9.32422 3.42306C9.32422 1.69113 10.7282 0.287109 12.4601 0.287109C14.192 0.287109 15.5961 1.69113 15.5961 3.42306Z" fill="#F74808"/>
<path d="M15.5961 21.5422C15.5961 23.2741 14.192 24.6782 12.4601 24.6782C10.7282 24.6782 9.32422 23.2741 9.32422 21.5422C9.32422 19.8103 10.7282 18.4062 12.4601 18.4062C14.192 18.4062 15.5961 19.8103 15.5961 21.5422Z" fill="#F74808"/>
<path d="M21.7805 15.6176C23.5124 15.6176 24.9164 14.2136 24.9164 12.4817C24.9164 10.7497 23.5124 9.3457 21.7805 9.3457C20.0485 9.3457 18.6445 10.7497 18.6445 12.4817C18.6445 14.2136 20.0485 15.6176 21.7805 15.6176Z" fill="#F74808"/>
<path d="M20.3887 6.94744C21.9474 6.94744 23.2111 5.68383 23.2111 4.12509C23.2111 2.56635 21.9474 1.30273 20.3887 1.30273C18.83 1.30273 17.5664 2.56635 17.5664 4.12509C17.5664 5.68383 18.83 6.94744 20.3887 6.94744Z" fill="#F74808"/>
<path d="M20.3887 23.6721C21.9474 23.6721 23.2111 22.4084 23.2111 20.8497C23.2111 19.291 21.9474 18.0273 20.3887 18.0273C18.83 18.0273 17.5664 19.291 17.5664 20.8497C17.5664 22.4084 18.83 23.6721 20.3887 23.6721Z" fill="#F74808"/>
</g>
<defs>
<clipPath id="clip0_709_1452">
<rect width="84" height="25" fill="white"/>
</clipPath>
</defs>
</svg>
